C:\GBW_MyPrograms\KinderuniversiteitApp\Resultaten\Ellis_v10102025\Reus\Reus_v3.mot
version=1
nRows=13
nColumns=29
inDegrees=yes
endheader
                time	         pelvis_tilt	           pelvis_tx	           pelvis_ty	       hip_flexion_l	       hip_flexion_r	        knee_angle_l	        knee_angle_r	       ankle_angle_l	       ankle_angle_r	    lumbar_extension	hamstrings_r/activation	bifemsh_r/activation	glut_max_r/activation	iliopsoas_r/activation	rect_fem_r/activation	  vasti_r/activation	gastroc_r/activation	 soleus_r/activation	tib_ant_r/activation	hamstrings_l/activation	bifemsh_l/activation	glut_max_l/activation	iliopsoas_l/activation	rect_fem_l/activation	  vasti_l/activation	gastroc_l/activation	 soleus_l/activation	tib_ant_l/activation	
          0.30000000	         -6.31343160	          0.79374796	          0.80117205	         26.79052397	         25.46494336	        -43.05686882	        -41.47920498	         11.69422079	         16.90018800	         -0.67319099	          0.28881900	          0.53558826	          0.71105035	          0.49142044	          0.50300798	          0.72136789	          0.38252432	          0.73898513	          0.44938881	          0.26598805	          0.41862882	          0.41470032	          0.30117493	          0.36085652	          0.48063957	          0.42726958	          0.42028093	          0.58325060	
          0.30200000	         -6.34483651	          0.80875360	          0.80224730	         26.53253305	         25.23081120	        -43.24355512	        -41.25070135	         11.53439111	         16.99133699	         -0.66437857	          0.28078137	          0.51561524	          0.73716218	          0.47149361	          0.48751955	          0.74860886	          0.36995048	          0.76157375	          0.43261305	          0.25649338	          0.40368414	          0.44915531	          0.28866592	          0.34968499	          0.46436566	          0.41127603	          0.40315360	          0.56915220	
          0.30400000	         -6.36807401	          0.82243116	          0.80338989	         26.26627825	         25.13620330	        -43.44515710	        -40.94538193	         11.43465161	         17.06708432	         -0.65938472	          0.29936051	          0.49699345	          0.76084982	          0.45233874	          0.47122033	          0.77257165	          0.42786521	          0.78222554	          0.41543070	          0.24712732	          0.38961343	          0.43568319	          0.27698636	          0.33878692	          0.44636810	          0.39660735	          0.38655618	          0.55366840	
          0.30600000	         -6.38689702	          0.83485140	          0.80447068	         26.06898983	         24.97208966	        -43.60810090	        -40.74140962	         11.39959038	         17.13146348	         -0.65772844	          0.29456922	          0.47908314	          0.78137305	          0.43385382	          0.45558154	          0.79380809	          0.47412656	          0.80038418	          0.39927092	          0.23688331	          0.37757557	          0.41918571	          0.26999155	          0.33010638	          0.42841444	          0.38329753	          0.37055047	          0.58850888	
          0.30800000	         -6.40489123	          0.84607718	          0.80559288	         25.73579971	         24.83418645	        -43.91248716	        -40.65894391	         11.42707882	         17.17240580	         -0.65888218	          0.36584351	          0.46173099	          0.80119964	          0.41583503	          0.43946406	          0.81257254	          0.48661627	          0.81594790	          0.38381028	          0.22807983	          0.37398664	          0.40285670	          0.34726058	          0.32219405	          0.41082022	          0.37617761	          0.35501822	          0.62417750	
          0.31000000	         -6.41761432	          0.85615385	          0.80660555	         25.51058554	         24.62384300	        -44.04198490	        -40.66687784	         11.34405374	         17.20444565	         -0.66232866	          0.42623291	          0.44487514	          0.81821929	          0.39849736	          0.42428683	          0.82913925	          0.48181588	          0.82937669	          0.36886733	          0.21702744	          0.43492026	          0.38630802	          0.41885327	          0.39241572	          0.39366745	          0.42486278	          0.34044326	          0.65335578	
          0.31200000	         -6.42850051	          0.86511832	          0.80756078	         25.14228413	         24.44498624	        -44.30687039	        -40.76914622	         11.26227516	         17.23246461	         -0.66879757	          0.44127641	          0.42858532	          0.83103614	          0.38195042	          0.41062840	          0.84367615	          0.47099298	          0.84081143	          0.35437400	          0.20550661	          0.49316825	          0.36993076	          0.48207587	          0.45721984	          0.37695421	          0.47016670	          0.32654896	          0.68409000	
          0.31400000	         -6.42744626	          0.87299195	          0.80828479	         24.96007626	         24.37676165	        -44.30728511	        -40.94975887	         11.21332477	         17.24731634	         -0.67851658	          0.45567384	          0.41293129	          0.82158751	          0.36626156	          0.39947217	          0.85639038	          0.45881225	          0.85011155	          0.34028961	          0.19408871	          0.54555552	          0.35379905	          0.53777573	          0.51506148	          0.36073873	          0.51867054	          0.31402510	          0.68534302	
          0.31600000	         -6.43677732	          0.87980444	          0.80885710	         24.52390124	         24.13805900	        -44.61783209	        -41.13969373	         11.18740766	         17.25520189	         -0.68820309	          0.51321149	          0.39792592	          0.83599877	          0.35069679	          0.38438002	          0.86750481	          0.44403776	          0.85592065	          0.32676695	          0.18313465	          0.59164085	          0.33820559	          0.58657607	          0.56452660	          0.34511956	          0.56409165	          0.30780566	          0.66237343	
          0.31800000	         -6.44592948	          0.88558481	          0.80929644	         24.15419989	         23.92068354	        -44.74826068	        -41.16110034	         11.18063852	         17.25109350	         -0.69458625	          0.56474874	          0.38326753	          0.85015507	          0.33522694	          0.36833550	          0.87724168	          0.42813045	          0.84276399	          0.31404602	          0.17483365	          0.63004407	          0.32369955	          0.62799410	          0.60305617	          0.32990667	          0.59717775	          0.29943840	          0.64173729	
          0.32000000	         -6.45912438	          0.89034284	          0.80966532	         23.81752914	         23.61816354	        -44.82004677	        -41.32953041	         11.22269330	         17.23978460	         -0.69706437	          0.60994266	          0.36936601	          0.86255189	          0.32033607	          0.35327179	          0.88547588	          0.41281770	          0.81513656	          0.30212822	          0.16553848	          0.65482477	          0.30964230	          0.66413912	          0.64059113	          0.31530571	          0.60871581	          0.29380698	          0.62099699	
          0.32200000	         -6.47508895	          0.89409034	          0.80992164	         23.27759902	         23.43880201	        -45.08521571	        -41.26083958	         11.32286477	         17.23176510	         -0.69800148	          0.64916372	          0.35615805	          0.87326006	          0.30607194	          0.33902857	          0.89214608	          0.39738900	          0.78645149	          0.29080164	          0.15633654	          0.63304803	          0.29627469	          0.69463347	          0.67454189	          0.30160948	          0.59420761	          0.29023424	          0.59995075	
          0.32400000	         -6.48389259	          0.89683402	          0.81015533	         22.97857302	         23.34315568	        -45.11767383	        -41.10622821	         11.45315754	         17.20903729	         -0.69756314	          0.68249511	          0.34391074	          0.88212363	          0.29240630	          0.32562233	          0.89663702	          0.38221106	          0.75780931	          0.28123729	          0.14717571	          0.61081423	          0.28327062	          0.72102488	          0.70528778	          0.28959080	          0.57565059	          0.28196918	          0.57598251	
